<?xml version="1.0" encoding="utf-8" standalone="no"?>
<!DOCTYPE svg PUBLIC "-//W3C//DTD SVG 1.1//EN"
  "http://www.w3.org/Graphics/SVG/1.1/DTD/svg11.dtd">
<!-- Created with matplotlib (http://matplotlib.org/) -->
<svg height="84.616pt" version="1.1" viewBox="0 0 565 84.616" width="565pt" xmlns="http://www.w3.org/2000/svg" xmlns:xlink="http://www.w3.org/1999/xlink">
 <defs>
  <style type="text/css">
*{stroke-linecap:butt;stroke-linejoin:round;}
  </style>
 </defs>
 <g id="figure_1">
  <g id="patch_1">
   <path d="M 0 84.616 
L 565 84.616 
L 565 0 
L 0 0 
z
" style="fill:none;"/>
  </g>
  <g id="axes_1">
   <g id="patch_2">
    <path d="M 3.5 81.116 
L 561.5 81.116 
L 561.5 3.5 
L 3.5 3.5 
z
" style="fill:none;"/>
   </g>
   <g id="QuadMesh_1">
    <path clip-path="url(#p35a24a1491)" d="M 3.5 3.5 
L 14.66 3.5 
L 14.66 14.588 
L 3.5 14.588 
L 3.5 3.5 
" style="fill:#dcd9d9;stroke:#ffffff;stroke-width:0.1;"/>
    <path clip-path="url(#p35a24a1491)" d="M 14.66 3.5 
L 25.82 3.5 
L 25.82 14.588 
L 14.66 14.588 
L 14.66 3.5 
" style="fill:#dcd9d9;stroke:#ffffff;stroke-width:0.1;"/>
    <path clip-path="url(#p35a24a1491)" d="M 25.82 3.5 
L 36.98 3.5 
L 36.98 14.588 
L 25.82 14.588 
L 25.82 3.5 
" style="fill:#dcd9d9;stroke:#ffffff;stroke-width:0.1;"/>
    <path clip-path="url(#p35a24a1491)" d="M 36.98 3.5 
L 48.14 3.5 
L 48.14 14.588 
L 36.98 14.588 
L 36.98 3.5 
" style="fill:#dcd9d9;stroke:#ffffff;stroke-width:0.1;"/>
    <path clip-path="url(#p35a24a1491)" d="M 48.14 3.5 
L 59.3 3.5 
L 59.3 14.588 
L 48.14 14.588 
L 48.14 3.5 
" style="fill:#dcd9d9;stroke:#ffffff;stroke-width:0.1;"/>
    <path clip-path="url(#p35a24a1491)" d="M 59.3 3.5 
L 70.46 3.5 
L 70.46 14.588 
L 59.3 14.588 
L 59.3 3.5 
" style="fill:#dcd9d9;stroke:#ffffff;stroke-width:0.1;"/>
    <path clip-path="url(#p35a24a1491)" d="M 70.46 3.5 
L 81.62 3.5 
L 81.62 14.588 
L 70.46 14.588 
L 70.46 3.5 
" style="fill:#dcd9d9;stroke:#ffffff;stroke-width:0.1;"/>
    <path clip-path="url(#p35a24a1491)" d="M 81.62 3.5 
L 92.78 3.5 
L 92.78 14.588 
L 81.62 14.588 
L 81.62 3.5 
" style="fill:#dcd9d9;stroke:#ffffff;stroke-width:0.1;"/>
    <path clip-path="url(#p35a24a1491)" d="M 92.78 3.5 
L 103.94 3.5 
L 103.94 14.588 
L 92.78 14.588 
L 92.78 3.5 
" style="fill:#dcd9d9;stroke:#ffffff;stroke-width:0.1;"/>
    <path clip-path="url(#p35a24a1491)" d="M 103.94 3.5 
L 115.1 3.5 
L 115.1 14.588 
L 103.94 14.588 
L 103.94 3.5 
" style="fill:#dcd9d9;stroke:#ffffff;stroke-width:0.1;"/>
    <path clip-path="url(#p35a24a1491)" d="M 115.1 3.5 
L 126.26 3.5 
L 126.26 14.588 
L 115.1 14.588 
L 115.1 3.5 
" style="fill:#47d1b8;stroke:#ffffff;stroke-width:0.1;"/>
    <path clip-path="url(#p35a24a1491)" d="M 126.26 3.5 
L 137.42 3.5 
L 137.42 14.588 
L 126.26 14.588 
L 126.26 3.5 
" style="fill:#47d1b8;stroke:#ffffff;stroke-width:0.1;"/>
    <path clip-path="url(#p35a24a1491)" d="M 137.42 3.5 
L 148.58 3.5 
L 148.58 14.588 
L 137.42 14.588 
L 137.42 3.5 
" style="fill:#dcd9d9;stroke:#ffffff;stroke-width:0.1;"/>
    <path clip-path="url(#p35a24a1491)" d="M 148.58 3.5 
L 159.74 3.5 
L 159.74 14.588 
L 148.58 14.588 
L 148.58 3.5 
" style="fill:#158095;stroke:#ffffff;stroke-width:0.1;"/>
    <path clip-path="url(#p35a24a1491)" d="M 159.74 3.5 
L 170.9 3.5 
L 170.9 14.588 
L 159.74 14.588 
L 159.74 3.5 
" style="fill:#dcd9d9;stroke:#ffffff;stroke-width:0.1;"/>
    <path clip-path="url(#p35a24a1491)" d="M 170.9 3.5 
L 182.06 3.5 
L 182.06 14.588 
L 170.9 14.588 
L 170.9 3.5 
" style="fill:#dcd9d9;stroke:#ffffff;stroke-width:0.1;"/>
    <path clip-path="url(#p35a24a1491)" d="M 182.06 3.5 
L 193.22 3.5 
L 193.22 14.588 
L 182.06 14.588 
L 182.06 3.5 
" style="fill:#dcd9d9;stroke:#ffffff;stroke-width:0.1;"/>
    <path clip-path="url(#p35a24a1491)" d="M 193.22 3.5 
L 204.38 3.5 
L 204.38 14.588 
L 193.22 14.588 
L 193.22 3.5 
" style="fill:#dcd9d9;stroke:#ffffff;stroke-width:0.1;"/>
    <path clip-path="url(#p35a24a1491)" d="M 204.38 3.5 
L 215.54 3.5 
L 215.54 14.588 
L 204.38 14.588 
L 204.38 3.5 
" style="fill:#dcd9d9;stroke:#ffffff;stroke-width:0.1;"/>
    <path clip-path="url(#p35a24a1491)" d="M 215.54 3.5 
L 226.7 3.5 
L 226.7 14.588 
L 215.54 14.588 
L 215.54 3.5 
" style="fill:#dcd9d9;stroke:#ffffff;stroke-width:0.1;"/>
    <path clip-path="url(#p35a24a1491)" d="M 226.7 3.5 
L 237.86 3.5 
L 237.86 14.588 
L 226.7 14.588 
L 226.7 3.5 
" style="fill:#158095;stroke:#ffffff;stroke-width:0.1;"/>
    <path clip-path="url(#p35a24a1491)" d="M 237.86 3.5 
L 249.02 3.5 
L 249.02 14.588 
L 237.86 14.588 
L 237.86 3.5 
" style="fill:#dcd9d9;stroke:#ffffff;stroke-width:0.1;"/>
    <path clip-path="url(#p35a24a1491)" d="M 249.02 3.5 
L 260.18 3.5 
L 260.18 14.588 
L 249.02 14.588 
L 249.02 3.5 
" style="fill:#dcd9d9;stroke:#ffffff;stroke-width:0.1;"/>
    <path clip-path="url(#p35a24a1491)" d="M 260.18 3.5 
L 271.34 3.5 
L 271.34 14.588 
L 260.18 14.588 
L 260.18 3.5 
" style="fill:#dcd9d9;stroke:#ffffff;stroke-width:0.1;"/>
    <path clip-path="url(#p35a24a1491)" d="M 271.34 3.5 
L 282.5 3.5 
L 282.5 14.588 
L 271.34 14.588 
L 271.34 3.5 
" style="fill:#dcd9d9;stroke:#ffffff;stroke-width:0.1;"/>
    <path clip-path="url(#p35a24a1491)" d="M 282.5 3.5 
L 293.66 3.5 
L 293.66 14.588 
L 282.5 14.588 
L 282.5 3.5 
" style="fill:#dcd9d9;stroke:#ffffff;stroke-width:0.1;"/>
    <path clip-path="url(#p35a24a1491)" d="M 293.66 3.5 
L 304.82 3.5 
L 304.82 14.588 
L 293.66 14.588 
L 293.66 3.5 
" style="fill:#dcd9d9;stroke:#ffffff;stroke-width:0.1;"/>
    <path clip-path="url(#p35a24a1491)" d="M 304.82 3.5 
L 315.98 3.5 
L 315.98 14.588 
L 304.82 14.588 
L 304.82 3.5 
" style="fill:#158095;stroke:#ffffff;stroke-width:0.1;"/>
    <path clip-path="url(#p35a24a1491)" d="M 315.98 3.5 
L 327.14 3.5 
L 327.14 14.588 
L 315.98 14.588 
L 315.98 3.5 
" style="fill:#dcd9d9;stroke:#ffffff;stroke-width:0.1;"/>
    <path clip-path="url(#p35a24a1491)" d="M 327.14 3.5 
L 338.3 3.5 
L 338.3 14.588 
L 327.14 14.588 
L 327.14 3.5 
" style="fill:#dcd9d9;stroke:#ffffff;stroke-width:0.1;"/>
    <path clip-path="url(#p35a24a1491)" d="M 338.3 3.5 
L 349.46 3.5 
L 349.46 14.588 
L 338.3 14.588 
L 338.3 3.5 
" style="fill:#dcd9d9;stroke:#ffffff;stroke-width:0.1;"/>
    <path clip-path="url(#p35a24a1491)" d="M 349.46 3.5 
L 360.62 3.5 
L 360.62 14.588 
L 349.46 14.588 
L 349.46 3.5 
" style="fill:#dcd9d9;stroke:#ffffff;stroke-width:0.1;"/>
    <path clip-path="url(#p35a24a1491)" d="M 360.62 3.5 
L 371.78 3.5 
L 371.78 14.588 
L 360.62 14.588 
L 360.62 3.5 
" style="fill:#dcd9d9;stroke:#ffffff;stroke-width:0.1;"/>
    <path clip-path="url(#p35a24a1491)" d="M 371.78 3.5 
L 382.94 3.5 
L 382.94 14.588 
L 371.78 14.588 
L 371.78 3.5 
" style="fill:#158095;stroke:#ffffff;stroke-width:0.1;"/>
    <path clip-path="url(#p35a24a1491)" d="M 382.94 3.5 
L 394.1 3.5 
L 394.1 14.588 
L 382.94 14.588 
L 382.94 3.5 
" style="fill:#dcd9d9;stroke:#ffffff;stroke-width:0.1;"/>
    <path clip-path="url(#p35a24a1491)" d="M 394.1 3.5 
L 405.26 3.5 
L 405.26 14.588 
L 394.1 14.588 
L 394.1 3.5 
" style="fill:#dcd9d9;stroke:#ffffff;stroke-width:0.1;"/>
    <path clip-path="url(#p35a24a1491)" d="M 405.26 3.5 
L 416.42 3.5 
L 416.42 14.588 
L 405.26 14.588 
L 405.26 3.5 
" style="fill:#dcd9d9;stroke:#ffffff;stroke-width:0.1;"/>
    <path clip-path="url(#p35a24a1491)" d="M 416.42 3.5 
L 427.58 3.5 
L 427.58 14.588 
L 416.42 14.588 
L 416.42 3.5 
" style="fill:#158095;stroke:#ffffff;stroke-width:0.1;"/>
    <path clip-path="url(#p35a24a1491)" d="M 427.58 3.5 
L 438.74 3.5 
L 438.74 14.588 
L 427.58 14.588 
L 427.58 3.5 
" style="fill:#dcd9d9;stroke:#ffffff;stroke-width:0.1;"/>
    <path clip-path="url(#p35a24a1491)" d="M 438.74 3.5 
L 449.9 3.5 
L 449.9 14.588 
L 438.74 14.588 
L 438.74 3.5 
" style="fill:#dcd9d9;stroke:#ffffff;stroke-width:0.1;"/>
    <path clip-path="url(#p35a24a1491)" d="M 449.9 3.5 
L 461.06 3.5 
L 461.06 14.588 
L 449.9 14.588 
L 449.9 3.5 
" style="fill:#dcd9d9;stroke:#ffffff;stroke-width:0.1;"/>
    <path clip-path="url(#p35a24a1491)" d="M 461.06 3.5 
L 472.22 3.5 
L 472.22 14.588 
L 461.06 14.588 
L 461.06 3.5 
" style="fill:#dcd9d9;stroke:#ffffff;stroke-width:0.1;"/>
    <path clip-path="url(#p35a24a1491)" d="M 472.22 3.5 
L 483.38 3.5 
L 483.38 14.588 
L 472.22 14.588 
L 472.22 3.5 
" style="fill:#dcd9d9;stroke:#ffffff;stroke-width:0.1;"/>
    <path clip-path="url(#p35a24a1491)" d="M 483.38 3.5 
L 494.54 3.5 
L 494.54 14.588 
L 483.38 14.588 
L 483.38 3.5 
" style="fill:#dcd9d9;stroke:#ffffff;stroke-width:0.1;"/>
    <path clip-path="url(#p35a24a1491)" d="M 494.54 3.5 
L 505.7 3.5 
L 505.7 14.588 
L 494.54 14.588 
L 494.54 3.5 
" style="fill:#dcd9d9;stroke:#ffffff;stroke-width:0.1;"/>
    <path clip-path="url(#p35a24a1491)" d="M 505.7 3.5 
L 516.86 3.5 
L 516.86 14.588 
L 505.7 14.588 
L 505.7 3.5 
" style="fill:#dcd9d9;stroke:#ffffff;stroke-width:0.1;"/>
    <path clip-path="url(#p35a24a1491)" d="M 516.86 3.5 
L 528.02 3.5 
L 528.02 14.588 
L 516.86 14.588 
L 516.86 3.5 
" style="fill:#dcd9d9;stroke:#ffffff;stroke-width:0.1;"/>
    <path clip-path="url(#p35a24a1491)" d="M 528.02 3.5 
L 539.18 3.5 
L 539.18 14.588 
L 528.02 14.588 
L 528.02 3.5 
" style="fill:#dcd9d9;stroke:#ffffff;stroke-width:0.1;"/>
    <path clip-path="url(#p35a24a1491)" d="M 539.18 3.5 
L 550.34 3.5 
L 550.34 14.588 
L 539.18 14.588 
L 539.18 3.5 
" style="fill:#dcd9d9;stroke:#ffffff;stroke-width:0.1;"/>
    <path clip-path="url(#p35a24a1491)" d="M 550.34 3.5 
L 561.5 3.5 
L 561.5 14.588 
L 550.34 14.588 
L 550.34 3.5 
" style="fill:#dcd9d9;stroke:#ffffff;stroke-width:0.1;"/>
    <path clip-path="url(#p35a24a1491)" d="M 3.5 14.588 
L 14.66 14.588 
L 14.66 25.676 
L 3.5 25.676 
L 3.5 14.588 
" style="fill:#dcd9d9;stroke:#ffffff;stroke-width:0.1;"/>
    <path clip-path="url(#p35a24a1491)" d="M 14.66 14.588 
L 25.82 14.588 
L 25.82 25.676 
L 14.66 25.676 
L 14.66 14.588 
" style="fill:#dcd9d9;stroke:#ffffff;stroke-width:0.1;"/>
    <path clip-path="url(#p35a24a1491)" d="M 25.82 14.588 
L 36.98 14.588 
L 36.98 25.676 
L 25.82 25.676 
L 25.82 14.588 
" style="fill:#dcd9d9;stroke:#ffffff;stroke-width:0.1;"/>
    <path clip-path="url(#p35a24a1491)" d="M 36.98 14.588 
L 48.14 14.588 
L 48.14 25.676 
L 36.98 25.676 
L 36.98 14.588 
" style="fill:#dcd9d9;stroke:#ffffff;stroke-width:0.1;"/>
    <path clip-path="url(#p35a24a1491)" d="M 48.14 14.588 
L 59.3 14.588 
L 59.3 25.676 
L 48.14 25.676 
L 48.14 14.588 
" style="fill:#dcd9d9;stroke:#ffffff;stroke-width:0.1;"/>
    <path clip-path="url(#p35a24a1491)" d="M 59.3 14.588 
L 70.46 14.588 
L 70.46 25.676 
L 59.3 25.676 
L 59.3 14.588 
" style="fill:#dcd9d9;stroke:#ffffff;stroke-width:0.1;"/>
    <path clip-path="url(#p35a24a1491)" d="M 70.46 14.588 
L 81.62 14.588 
L 81.62 25.676 
L 70.46 25.676 
L 70.46 14.588 
" style="fill:#dcd9d9;stroke:#ffffff;stroke-width:0.1;"/>
    <path clip-path="url(#p35a24a1491)" d="M 81.62 14.588 
L 92.78 14.588 
L 92.78 25.676 
L 81.62 25.676 
L 81.62 14.588 
" style="fill:#dcd9d9;stroke:#ffffff;stroke-width:0.1;"/>
    <path clip-path="url(#p35a24a1491)" d="M 92.78 14.588 
L 103.94 14.588 
L 103.94 25.676 
L 92.78 25.676 
L 92.78 14.588 
" style="fill:#dcd9d9;stroke:#ffffff;stroke-width:0.1;"/>
    <path clip-path="url(#p35a24a1491)" d="M 103.94 14.588 
L 115.1 14.588 
L 115.1 25.676 
L 103.94 25.676 
L 103.94 14.588 
" style="fill:#dcd9d9;stroke:#ffffff;stroke-width:0.1;"/>
    <path clip-path="url(#p35a24a1491)" d="M 115.1 14.588 
L 126.26 14.588 
L 126.26 25.676 
L 115.1 25.676 
L 115.1 14.588 
" style="fill:#dcd9d9;stroke:#ffffff;stroke-width:0.1;"/>
    <path clip-path="url(#p35a24a1491)" d="M 126.26 14.588 
L 137.42 14.588 
L 137.42 25.676 
L 126.26 25.676 
L 126.26 14.588 
" style="fill:#dcd9d9;stroke:#ffffff;stroke-width:0.1;"/>
    <path clip-path="url(#p35a24a1491)" d="M 137.42 14.588 
L 148.58 14.588 
L 148.58 25.676 
L 137.42 25.676 
L 137.42 14.588 
" style="fill:#dcd9d9;stroke:#ffffff;stroke-width:0.1;"/>
    <path clip-path="url(#p35a24a1491)" d="M 148.58 14.588 
L 159.74 14.588 
L 159.74 25.676 
L 148.58 25.676 
L 148.58 14.588 
" style="fill:#dcd9d9;stroke:#ffffff;stroke-width:0.1;"/>
    <path clip-path="url(#p35a24a1491)" d="M 159.74 14.588 
L 170.9 14.588 
L 170.9 25.676 
L 159.74 25.676 
L 159.74 14.588 
" style="fill:#dcd9d9;stroke:#ffffff;stroke-width:0.1;"/>
    <path clip-path="url(#p35a24a1491)" d="M 170.9 14.588 
L 182.06 14.588 
L 182.06 25.676 
L 170.9 25.676 
L 170.9 14.588 
" style="fill:#dcd9d9;stroke:#ffffff;stroke-width:0.1;"/>
    <path clip-path="url(#p35a24a1491)" d="M 182.06 14.588 
L 193.22 14.588 
L 193.22 25.676 
L 182.06 25.676 
L 182.06 14.588 
" style="fill:#dcd9d9;stroke:#ffffff;stroke-width:0.1;"/>
    <path clip-path="url(#p35a24a1491)" d="M 193.22 14.588 
L 204.38 14.588 
L 204.38 25.676 
L 193.22 25.676 
L 193.22 14.588 
" style="fill:#dcd9d9;stroke:#ffffff;stroke-width:0.1;"/>
    <path clip-path="url(#p35a24a1491)" d="M 204.38 14.588 
L 215.54 14.588 
L 215.54 25.676 
L 204.38 25.676 
L 204.38 14.588 
" style="fill:#dcd9d9;stroke:#ffffff;stroke-width:0.1;"/>
    <path clip-path="url(#p35a24a1491)" d="M 215.54 14.588 
L 226.7 14.588 
L 226.7 25.676 
L 215.54 25.676 
L 215.54 14.588 
" style="fill:#dcd9d9;stroke:#ffffff;stroke-width:0.1;"/>
    <path clip-path="url(#p35a24a1491)" d="M 226.7 14.588 
L 237.86 14.588 
L 237.86 25.676 
L 226.7 25.676 
L 226.7 14.588 
" style="fill:#dcd9d9;stroke:#ffffff;stroke-width:0.1;"/>
    <path clip-path="url(#p35a24a1491)" d="M 237.86 14.588 
L 249.02 14.588 
L 249.02 25.676 
L 237.86 25.676 
L 237.86 14.588 
" style="fill:#dcd9d9;stroke:#ffffff;stroke-width:0.1;"/>
    <path clip-path="url(#p35a24a1491)" d="M 249.02 14.588 
L 260.18 14.588 
L 260.18 25.676 
L 249.02 25.676 
L 249.02 14.588 
" style="fill:#dcd9d9;stroke:#ffffff;stroke-width:0.1;"/>
    <path clip-path="url(#p35a24a1491)" d="M 260.18 14.588 
L 271.34 14.588 
L 271.34 25.676 
L 260.18 25.676 
L 260.18 14.588 
" style="fill:#dcd9d9;stroke:#ffffff;stroke-width:0.1;"/>
    <path clip-path="url(#p35a24a1491)" d="M 271.34 14.588 
L 282.5 14.588 
L 282.5 25.676 
L 271.34 25.676 
L 271.34 14.588 
" style="fill:#dcd9d9;stroke:#ffffff;stroke-width:0.1;"/>
    <path clip-path="url(#p35a24a1491)" d="M 282.5 14.588 
L 293.66 14.588 
L 293.66 25.676 
L 282.5 25.676 
L 282.5 14.588 
" style="fill:#dcd9d9;stroke:#ffffff;stroke-width:0.1;"/>
    <path clip-path="url(#p35a24a1491)" d="M 293.66 14.588 
L 304.82 14.588 
L 304.82 25.676 
L 293.66 25.676 
L 293.66 14.588 
" style="fill:#dcd9d9;stroke:#ffffff;stroke-width:0.1;"/>
    <path clip-path="url(#p35a24a1491)" d="M 304.82 14.588 
L 315.98 14.588 
L 315.98 25.676 
L 304.82 25.676 
L 304.82 14.588 
" style="fill:#dcd9d9;stroke:#ffffff;stroke-width:0.1;"/>
    <path clip-path="url(#p35a24a1491)" d="M 315.98 14.588 
L 327.14 14.588 
L 327.14 25.676 
L 315.98 25.676 
L 315.98 14.588 
" style="fill:#dcd9d9;stroke:#ffffff;stroke-width:0.1;"/>
    <path clip-path="url(#p35a24a1491)" d="M 327.14 14.588 
L 338.3 14.588 
L 338.3 25.676 
L 327.14 25.676 
L 327.14 14.588 
" style="fill:#dcd9d9;stroke:#ffffff;stroke-width:0.1;"/>
    <path clip-path="url(#p35a24a1491)" d="M 338.3 14.588 
L 349.46 14.588 
L 349.46 25.676 
L 338.3 25.676 
L 338.3 14.588 
" style="fill:#dcd9d9;stroke:#ffffff;stroke-width:0.1;"/>
    <path clip-path="url(#p35a24a1491)" d="M 349.46 14.588 
L 360.62 14.588 
L 360.62 25.676 
L 349.46 25.676 
L 349.46 14.588 
" style="fill:#dcd9d9;stroke:#ffffff;stroke-width:0.1;"/>
    <path clip-path="url(#p35a24a1491)" d="M 360.62 14.588 
L 371.78 14.588 
L 371.78 25.676 
L 360.62 25.676 
L 360.62 14.588 
" style="fill:#dcd9d9;stroke:#ffffff;stroke-width:0.1;"/>
    <path clip-path="url(#p35a24a1491)" d="M 371.78 14.588 
L 382.94 14.588 
L 382.94 25.676 
L 371.78 25.676 
L 371.78 14.588 
" style="fill:#dcd9d9;stroke:#ffffff;stroke-width:0.1;"/>
    <path clip-path="url(#p35a24a1491)" d="M 382.94 14.588 
L 394.1 14.588 
L 394.1 25.676 
L 382.94 25.676 
L 382.94 14.588 
" style="fill:#dcd9d9;stroke:#ffffff;stroke-width:0.1;"/>
    <path clip-path="url(#p35a24a1491)" d="M 394.1 14.588 
L 405.26 14.588 
L 405.26 25.676 
L 394.1 25.676 
L 394.1 14.588 
" style="fill:#dcd9d9;stroke:#ffffff;stroke-width:0.1;"/>
    <path clip-path="url(#p35a24a1491)" d="M 405.26 14.588 
L 416.42 14.588 
L 416.42 25.676 
L 405.26 25.676 
L 405.26 14.588 
" style="fill:#dcd9d9;stroke:#ffffff;stroke-width:0.1;"/>
    <path clip-path="url(#p35a24a1491)" d="M 416.42 14.588 
L 427.58 14.588 
L 427.58 25.676 
L 416.42 25.676 
L 416.42 14.588 
" style="fill:#dcd9d9;stroke:#ffffff;stroke-width:0.1;"/>
    <path clip-path="url(#p35a24a1491)" d="M 427.58 14.588 
L 438.74 14.588 
L 438.74 25.676 
L 427.58 25.676 
L 427.58 14.588 
" style="fill:#dcd9d9;stroke:#ffffff;stroke-width:0.1;"/>
    <path clip-path="url(#p35a24a1491)" d="M 438.74 14.588 
L 449.9 14.588 
L 449.9 25.676 
L 438.74 25.676 
L 438.74 14.588 
" style="fill:#dcd9d9;stroke:#ffffff;stroke-width:0.1;"/>
    <path clip-path="url(#p35a24a1491)" d="M 449.9 14.588 
L 461.06 14.588 
L 461.06 25.676 
L 449.9 25.676 
L 449.9 14.588 
" style="fill:#dcd9d9;stroke:#ffffff;stroke-width:0.1;"/>
    <path clip-path="url(#p35a24a1491)" d="M 461.06 14.588 
L 472.22 14.588 
L 472.22 25.676 
L 461.06 25.676 
L 461.06 14.588 
" style="fill:#dcd9d9;stroke:#ffffff;stroke-width:0.1;"/>
    <path clip-path="url(#p35a24a1491)" d="M 472.22 14.588 
L 483.38 14.588 
L 483.38 25.676 
L 472.22 25.676 
L 472.22 14.588 
" style="fill:#dcd9d9;stroke:#ffffff;stroke-width:0.1;"/>
    <path clip-path="url(#p35a24a1491)" d="M 483.38 14.588 
L 494.54 14.588 
L 494.54 25.676 
L 483.38 25.676 
L 483.38 14.588 
" style="fill:#dcd9d9;stroke:#ffffff;stroke-width:0.1;"/>
    <path clip-path="url(#p35a24a1491)" d="M 494.54 14.588 
L 505.7 14.588 
L 505.7 25.676 
L 494.54 25.676 
L 494.54 14.588 
" style="fill:#dcd9d9;stroke:#ffffff;stroke-width:0.1;"/>
    <path clip-path="url(#p35a24a1491)" d="M 505.7 14.588 
L 516.86 14.588 
L 516.86 25.676 
L 505.7 25.676 
L 505.7 14.588 
" style="fill:#dcd9d9;stroke:#ffffff;stroke-width:0.1;"/>
    <path clip-path="url(#p35a24a1491)" d="M 516.86 14.588 
L 528.02 14.588 
L 528.02 25.676 
L 516.86 25.676 
L 516.86 14.588 
" style="fill:#dcd9d9;stroke:#ffffff;stroke-width:0.1;"/>
    <path clip-path="url(#p35a24a1491)" d="M 528.02 14.588 
L 539.18 14.588 
L 539.18 25.676 
L 528.02 25.676 
L 528.02 14.588 
" style="fill:#dcd9d9;stroke:#ffffff;stroke-width:0.1;"/>
    <path clip-path="url(#p35a24a1491)" d="M 539.18 14.588 
L 550.34 14.588 
L 550.34 25.676 
L 539.18 25.676 
L 539.18 14.588 
" style="fill:#dcd9d9;stroke:#ffffff;stroke-width:0.1;"/>
    <path clip-path="url(#p35a24a1491)" d="M 550.34 14.588 
L 561.5 14.588 
L 561.5 25.676 
L 550.34 25.676 
L 550.34 14.588 
" style="fill:#dcd9d9;stroke:#ffffff;stroke-width:0.1;"/>
    <path clip-path="url(#p35a24a1491)" d="M 3.5 25.676 
L 14.66 25.676 
L 14.66 36.764 
L 3.5 36.764 
L 3.5 25.676 
" style="fill:#dcd9d9;stroke:#ffffff;stroke-width:0.1;"/>
    <path clip-path="url(#p35a24a1491)" d="M 14.66 25.676 
L 25.82 25.676 
L 25.82 36.764 
L 14.66 36.764 
L 14.66 25.676 
" style="fill:#dcd9d9;stroke:#ffffff;stroke-width:0.1;"/>
    <path clip-path="url(#p35a24a1491)" d="M 25.82 25.676 
L 36.98 25.676 
L 36.98 36.764 
L 25.82 36.764 
L 25.82 25.676 
" style="fill:#dcd9d9;stroke:#ffffff;stroke-width:0.1;"/>
    <path clip-path="url(#p35a24a1491)" d="M 36.98 25.676 
L 48.14 25.676 
L 48.14 36.764 
L 36.98 36.764 
L 36.98 25.676 
" style="fill:#dcd9d9;stroke:#ffffff;stroke-width:0.1;"/>
    <path clip-path="url(#p35a24a1491)" d="M 48.14 25.676 
L 59.3 25.676 
L 59.3 36.764 
L 48.14 36.764 
L 48.14 25.676 
" style="fill:#dcd9d9;stroke:#ffffff;stroke-width:0.1;"/>
    <path clip-path="url(#p35a24a1491)" d="M 59.3 25.676 
L 70.46 25.676 
L 70.46 36.764 
L 59.3 36.764 
L 59.3 25.676 
" style="fill:#dcd9d9;stroke:#ffffff;stroke-width:0.1;"/>
    <path clip-path="url(#p35a24a1491)" d="M 70.46 25.676 
L 81.62 25.676 
L 81.62 36.764 
L 70.46 36.764 
L 70.46 25.676 
" style="fill:#dcd9d9;stroke:#ffffff;stroke-width:0.1;"/>
    <path clip-path="url(#p35a24a1491)" d="M 81.62 25.676 
L 92.78 25.676 
L 92.78 36.764 
L 81.62 36.764 
L 81.62 25.676 
" style="fill:#dcd9d9;stroke:#ffffff;stroke-width:0.1;"/>
    <path clip-path="url(#p35a24a1491)" d="M 92.78 25.676 
L 103.94 25.676 
L 103.94 36.764 
L 92.78 36.764 
L 92.78 25.676 
" style="fill:#47d1b8;stroke:#ffffff;stroke-width:0.1;"/>
    <path clip-path="url(#p35a24a1491)" d="M 103.94 25.676 
L 115.1 25.676 
L 115.1 36.764 
L 103.94 36.764 
L 103.94 25.676 
" style="fill:#47d1b8;stroke:#ffffff;stroke-width:0.1;"/>
    <path clip-path="url(#p35a24a1491)" d="M 115.1 25.676 
L 126.26 25.676 
L 126.26 36.764 
L 115.1 36.764 
L 115.1 25.676 
" style="fill:#dcd9d9;stroke:#ffffff;stroke-width:0.1;"/>
    <path clip-path="url(#p35a24a1491)" d="M 126.26 25.676 
L 137.42 25.676 
L 137.42 36.764 
L 126.26 36.764 
L 126.26 25.676 
" style="fill:#dcd9d9;stroke:#ffffff;stroke-width:0.1;"/>
    <path clip-path="url(#p35a24a1491)" d="M 137.42 25.676 
L 148.58 25.676 
L 148.58 36.764 
L 137.42 36.764 
L 137.42 25.676 
" style="fill:#dcd9d9;stroke:#ffffff;stroke-width:0.1;"/>
    <path clip-path="url(#p35a24a1491)" d="M 148.58 25.676 
L 159.74 25.676 
L 159.74 36.764 
L 148.58 36.764 
L 148.58 25.676 
" style="fill:#dcd9d9;stroke:#ffffff;stroke-width:0.1;"/>
    <path clip-path="url(#p35a24a1491)" d="M 159.74 25.676 
L 170.9 25.676 
L 170.9 36.764 
L 159.74 36.764 
L 159.74 25.676 
" style="fill:#dcd9d9;stroke:#ffffff;stroke-width:0.1;"/>
    <path clip-path="url(#p35a24a1491)" d="M 170.9 25.676 
L 182.06 25.676 
L 182.06 36.764 
L 170.9 36.764 
L 170.9 25.676 
" style="fill:#dcd9d9;stroke:#ffffff;stroke-width:0.1;"/>
    <path clip-path="url(#p35a24a1491)" d="M 182.06 25.676 
L 193.22 25.676 
L 193.22 36.764 
L 182.06 36.764 
L 182.06 25.676 
" style="fill:#dcd9d9;stroke:#ffffff;stroke-width:0.1;"/>
    <path clip-path="url(#p35a24a1491)" d="M 193.22 25.676 
L 204.38 25.676 
L 204.38 36.764 
L 193.22 36.764 
L 193.22 25.676 
" style="fill:#dcd9d9;stroke:#ffffff;stroke-width:0.1;"/>
    <path clip-path="url(#p35a24a1491)" d="M 204.38 25.676 
L 215.54 25.676 
L 215.54 36.764 
L 204.38 36.764 
L 204.38 25.676 
" style="fill:#dcd9d9;stroke:#ffffff;stroke-width:0.1;"/>
    <path clip-path="url(#p35a24a1491)" d="M 215.54 25.676 
L 226.7 25.676 
L 226.7 36.764 
L 215.54 36.764 
L 215.54 25.676 
" style="fill:#dcd9d9;stroke:#ffffff;stroke-width:0.1;"/>
    <path clip-path="url(#p35a24a1491)" d="M 226.7 25.676 
L 237.86 25.676 
L 237.86 36.764 
L 226.7 36.764 
L 226.7 25.676 
" style="fill:#dcd9d9;stroke:#ffffff;stroke-width:0.1;"/>
    <path clip-path="url(#p35a24a1491)" d="M 237.86 25.676 
L 249.02 25.676 
L 249.02 36.764 
L 237.86 36.764 
L 237.86 25.676 
" style="fill:#dcd9d9;stroke:#ffffff;stroke-width:0.1;"/>
    <path clip-path="url(#p35a24a1491)" d="M 249.02 25.676 
L 260.18 25.676 
L 260.18 36.764 
L 249.02 36.764 
L 249.02 25.676 
" style="fill:#dcd9d9;stroke:#ffffff;stroke-width:0.1;"/>
    <path clip-path="url(#p35a24a1491)" d="M 260.18 25.676 
L 271.34 25.676 
L 271.34 36.764 
L 260.18 36.764 
L 260.18 25.676 
" style="fill:#dcd9d9;stroke:#ffffff;stroke-width:0.1;"/>
    <path clip-path="url(#p35a24a1491)" d="M 271.34 25.676 
L 282.5 25.676 
L 282.5 36.764 
L 271.34 36.764 
L 271.34 25.676 
" style="fill:#dcd9d9;stroke:#ffffff;stroke-width:0.1;"/>
    <path clip-path="url(#p35a24a1491)" d="M 282.5 25.676 
L 293.66 25.676 
L 293.66 36.764 
L 282.5 36.764 
L 282.5 25.676 
" style="fill:#dcd9d9;stroke:#ffffff;stroke-width:0.1;"/>
    <path clip-path="url(#p35a24a1491)" d="M 293.66 25.676 
L 304.82 25.676 
L 304.82 36.764 
L 293.66 36.764 
L 293.66 25.676 
" style="fill:#dcd9d9;stroke:#ffffff;stroke-width:0.1;"/>
    <path clip-path="url(#p35a24a1491)" d="M 304.82 25.676 
L 315.98 25.676 
L 315.98 36.764 
L 304.82 36.764 
L 304.82 25.676 
" style="fill:#dcd9d9;stroke:#ffffff;stroke-width:0.1;"/>
    <path clip-path="url(#p35a24a1491)" d="M 315.98 25.676 
L 327.14 25.676 
L 327.14 36.764 
L 315.98 36.764 
L 315.98 25.676 
" style="fill:#dcd9d9;stroke:#ffffff;stroke-width:0.1;"/>
    <path clip-path="url(#p35a24a1491)" d="M 327.14 25.676 
L 338.3 25.676 
L 338.3 36.764 
L 327.14 36.764 
L 327.14 25.676 
" style="fill:#dcd9d9;stroke:#ffffff;stroke-width:0.1;"/>
    <path clip-path="url(#p35a24a1491)" d="M 338.3 25.676 
L 349.46 25.676 
L 349.46 36.764 
L 338.3 36.764 
L 338.3 25.676 
" style="fill:#dcd9d9;stroke:#ffffff;stroke-width:0.1;"/>
    <path clip-path="url(#p35a24a1491)" d="M 349.46 25.676 
L 360.62 25.676 
L 360.62 36.764 
L 349.46 36.764 
L 349.46 25.676 
" style="fill:#dcd9d9;stroke:#ffffff;stroke-width:0.1;"/>
    <path clip-path="url(#p35a24a1491)" d="M 360.62 25.676 
L 371.78 25.676 
L 371.78 36.764 
L 360.62 36.764 
L 360.62 25.676 
" style="fill:#dcd9d9;stroke:#ffffff;stroke-width:0.1;"/>
    <path clip-path="url(#p35a24a1491)" d="M 371.78 25.676 
L 382.94 25.676 
L 382.94 36.764 
L 371.78 36.764 
L 371.78 25.676 
" style="fill:#dcd9d9;stroke:#ffffff;stroke-width:0.1;"/>
    <path clip-path="url(#p35a24a1491)" d="M 382.94 25.676 
L 394.1 25.676 
L 394.1 36.764 
L 382.94 36.764 
L 382.94 25.676 
" style="fill:#dcd9d9;stroke:#ffffff;stroke-width:0.1;"/>
    <path clip-path="url(#p35a24a1491)" d="M 394.1 25.676 
L 405.26 25.676 
L 405.26 36.764 
L 394.1 36.764 
L 394.1 25.676 
" style="fill:#dcd9d9;stroke:#ffffff;stroke-width:0.1;"/>
    <path clip-path="url(#p35a24a1491)" d="M 405.26 25.676 
L 416.42 25.676 
L 416.42 36.764 
L 405.26 36.764 
L 405.26 25.676 
" style="fill:#dcd9d9;stroke:#ffffff;stroke-width:0.1;"/>
    <path clip-path="url(#p35a24a1491)" d="M 416.42 25.676 
L 427.58 25.676 
L 427.58 36.764 
L 416.42 36.764 
L 416.42 25.676 
" style="fill:#dcd9d9;stroke:#ffffff;stroke-width:0.1;"/>
    <path clip-path="url(#p35a24a1491)" d="M 427.58 25.676 
L 438.74 25.676 
L 438.74 36.764 
L 427.58 36.764 
L 427.58 25.676 
" style="fill:#dcd9d9;stroke:#ffffff;stroke-width:0.1;"/>
    <path clip-path="url(#p35a24a1491)" d="M 438.74 25.676 
L 449.9 25.676 
L 449.9 36.764 
L 438.74 36.764 
L 438.74 25.676 
" style="fill:#dcd9d9;stroke:#ffffff;stroke-width:0.1;"/>
    <path clip-path="url(#p35a24a1491)" d="M 449.9 25.676 
L 461.06 25.676 
L 461.06 36.764 
L 449.9 36.764 
L 449.9 25.676 
" style="fill:#dcd9d9;stroke:#ffffff;stroke-width:0.1;"/>
    <path clip-path="url(#p35a24a1491)" d="M 461.06 25.676 
L 472.22 25.676 
L 472.22 36.764 
L 461.06 36.764 
L 461.06 25.676 
" style="fill:#dcd9d9;stroke:#ffffff;stroke-width:0.1;"/>
    <path clip-path="url(#p35a24a1491)" d="M 472.22 25.676 
L 483.38 25.676 
L 483.38 36.764 
L 472.22 36.764 
L 472.22 25.676 
" style="fill:#dcd9d9;stroke:#ffffff;stroke-width:0.1;"/>
    <path clip-path="url(#p35a24a1491)" d="M 483.38 25.676 
L 494.54 25.676 
L 494.54 36.764 
L 483.38 36.764 
L 483.38 25.676 
" style="fill:#dcd9d9;stroke:#ffffff;stroke-width:0.1;"/>
    <path clip-path="url(#p35a24a1491)" d="M 494.54 25.676 
L 505.7 25.676 
L 505.7 36.764 
L 494.54 36.764 
L 494.54 25.676 
" style="fill:#dcd9d9;stroke:#ffffff;stroke-width:0.1;"/>
    <path clip-path="url(#p35a24a1491)" d="M 505.7 25.676 
L 516.86 25.676 
L 516.86 36.764 
L 505.7 36.764 
L 505.7 25.676 
" style="fill:#dcd9d9;stroke:#ffffff;stroke-width:0.1;"/>
    <path clip-path="url(#p35a24a1491)" d="M 516.86 25.676 
L 528.02 25.676 
L 528.02 36.764 
L 516.86 36.764 
L 516.86 25.676 
" style="fill:#dcd9d9;stroke:#ffffff;stroke-width:0.1;"/>
    <path clip-path="url(#p35a24a1491)" d="M 528.02 25.676 
L 539.18 25.676 
L 539.18 36.764 
L 528.02 36.764 
L 528.02 25.676 
" style="fill:#dcd9d9;stroke:#ffffff;stroke-width:0.1;"/>
    <path clip-path="url(#p35a24a1491)" d="M 539.18 25.676 
L 550.34 25.676 
L 550.34 36.764 
L 539.18 36.764 
L 539.18 25.676 
" style="fill:#dcd9d9;stroke:#ffffff;stroke-width:0.1;"/>
    <path clip-path="url(#p35a24a1491)" d="M 550.34 25.676 
L 561.5 25.676 
L 561.5 36.764 
L 550.34 36.764 
L 550.34 25.676 
" style="fill:#dcd9d9;stroke:#ffffff;stroke-width:0.1;"/>
    <path clip-path="url(#p35a24a1491)" d="M 3.5 36.764 
L 14.66 36.764 
L 14.66 47.852 
L 3.5 47.852 
L 3.5 36.764 
" style="fill:#dcd9d9;stroke:#ffffff;stroke-width:0.1;"/>
    <path clip-path="url(#p35a24a1491)" d="M 14.66 36.764 
L 25.82 36.764 
L 25.82 47.852 
L 14.66 47.852 
L 14.66 36.764 
" style="fill:#dcd9d9;stroke:#ffffff;stroke-width:0.1;"/>
    <path clip-path="url(#p35a24a1491)" d="M 25.82 36.764 
L 36.98 36.764 
L 36.98 47.852 
L 25.82 47.852 
L 25.82 36.764 
" style="fill:#dcd9d9;stroke:#ffffff;stroke-width:0.1;"/>
    <path clip-path="url(#p35a24a1491)" d="M 36.98 36.764 
L 48.14 36.764 
L 48.14 47.852 
L 36.98 47.852 
L 36.98 36.764 
" style="fill:#dcd9d9;stroke:#ffffff;stroke-width:0.1;"/>
    <path clip-path="url(#p35a24a1491)" d="M 48.14 36.764 
L 59.3 36.764 
L 59.3 47.852 
L 48.14 47.852 
L 48.14 36.764 
" style="fill:#dcd9d9;stroke:#ffffff;stroke-width:0.1;"/>
    <path clip-path="url(#p35a24a1491)" d="M 59.3 36.764 
L 70.46 36.764 
L 70.46 47.852 
L 59.3 47.852 
L 59.3 36.764 
" style="fill:#dcd9d9;stroke:#ffffff;stroke-width:0.1;"/>
    <path clip-path="url(#p35a24a1491)" d="M 70.46 36.764 
L 81.62 36.764 
L 81.62 47.852 
L 70.46 47.852 
L 70.46 36.764 
" style="fill:#dcd9d9;stroke:#ffffff;stroke-width:0.1;"/>
    <path clip-path="url(#p35a24a1491)" d="M 81.62 36.764 
L 92.78 36.764 
L 92.78 47.852 
L 81.62 47.852 
L 81.62 36.764 
" style="fill:#dcd9d9;stroke:#ffffff;stroke-width:0.1;"/>
    <path clip-path="url(#p35a24a1491)" d="M 92.78 36.764 
L 103.94 36.764 
L 103.94 47.852 
L 92.78 47.852 
L 92.78 36.764 
" style="fill:#dcd9d9;stroke:#ffffff;stroke-width:0.1;"/>
    <path clip-path="url(#p35a24a1491)" d="M 103.94 36.764 
L 115.1 36.764 
L 115.1 47.852 
L 103.94 47.852 
L 103.94 36.764 
" style="fill:#dcd9d9;stroke:#ffffff;stroke-width:0.1;"/>
    <path clip-path="url(#p35a24a1491)" d="M 115.1 36.764 
L 126.26 36.764 
L 126.26 47.852 
L 115.1 47.852 
L 115.1 36.764 
" style="fill:#dcd9d9;stroke:#ffffff;stroke-width:0.1;"/>
    <path clip-path="url(#p35a24a1491)" d="M 126.26 36.764 
L 137.42 36.764 
L 137.42 47.852 
L 126.26 47.852 
L 126.26 36.764 
" style="fill:#dcd9d9;stroke:#ffffff;stroke-width:0.1;"/>
    <path clip-path="url(#p35a24a1491)" d="M 137.42 36.764 
L 148.58 36.764 
L 148.58 47.852 
L 137.42 47.852 
L 137.42 36.764 
" style="fill:#dcd9d9;stroke:#ffffff;stroke-width:0.1;"/>
    <path clip-path="url(#p35a24a1491)" d="M 148.58 36.764 
L 159.74 36.764 
L 159.74 47.852 
L 148.58 47.852 
L 148.58 36.764 
" style="fill:#47d1b8;stroke:#ffffff;stroke-width:0.1;"/>
    <path clip-path="url(#p35a24a1491)" d="M 159.74 36.764 
L 170.9 36.764 
L 170.9 47.852 
L 159.74 47.852 
L 159.74 36.764 
" style="fill:#47d1b8;stroke:#ffffff;stroke-width:0.1;"/>
    <path clip-path="url(#p35a24a1491)" d="M 170.9 36.764 
L 182.06 36.764 
L 182.06 47.852 
L 170.9 47.852 
L 170.9 36.764 
" style="fill:#dcd9d9;stroke:#ffffff;stroke-width:0.1;"/>
    <path clip-path="url(#p35a24a1491)" d="M 182.06 36.764 
L 193.22 36.764 
L 193.22 47.852 
L 182.06 47.852 
L 182.06 36.764 
" style="fill:#dcd9d9;stroke:#ffffff;stroke-width:0.1;"/>
    <path clip-path="url(#p35a24a1491)" d="M 193.22 36.764 
L 204.38 36.764 
L 204.38 47.852 
L 193.22 47.852 
L 193.22 36.764 
" style="fill:#dcd9d9;stroke:#ffffff;stroke-width:0.1;"/>
    <path clip-path="url(#p35a24a1491)" d="M 204.38 36.764 
L 215.54 36.764 
L 215.54 47.852 
L 204.38 47.852 
L 204.38 36.764 
" style="fill:#dcd9d9;stroke:#ffffff;stroke-width:0.1;"/>
    <path clip-path="url(#p35a24a1491)" d="M 215.54 36.764 
L 226.7 36.764 
L 226.7 47.852 
L 215.54 47.852 
L 215.54 36.764 
" style="fill:#dcd9d9;stroke:#ffffff;stroke-width:0.1;"/>
    <path clip-path="url(#p35a24a1491)" d="M 226.7 36.764 
L 237.86 36.764 
L 237.86 47.852 
L 226.7 47.852 
L 226.7 36.764 
" style="fill:#dcd9d9;stroke:#ffffff;stroke-width:0.1;"/>
    <path clip-path="url(#p35a24a1491)" d="M 237.86 36.764 
L 249.02 36.764 
L 249.02 47.852 
L 237.86 47.852 
L 237.86 36.764 
" style="fill:#dcd9d9;stroke:#ffffff;stroke-width:0.1;"/>
    <path clip-path="url(#p35a24a1491)" d="M 249.02 36.764 
L 260.18 36.764 
L 260.18 47.852 
L 249.02 47.852 
L 249.02 36.764 
" style="fill:#dcd9d9;stroke:#ffffff;stroke-width:0.1;"/>
    <path clip-path="url(#p35a24a1491)" d="M 260.18 36.764 
L 271.34 36.764 
L 271.34 47.852 
L 260.18 47.852 
L 260.18 36.764 
" style="fill:#dcd9d9;stroke:#ffffff;stroke-width:0.1;"/>
    <path clip-path="url(#p35a24a1491)" d="M 271.34 36.764 
L 282.5 36.764 
L 282.5 47.852 
L 271.34 47.852 
L 271.34 36.764 
" style="fill:#dcd9d9;stroke:#ffffff;stroke-width:0.1;"/>
    <path clip-path="url(#p35a24a1491)" d="M 282.5 36.764 
L 293.66 36.764 
L 293.66 47.852 
L 282.5 47.852 
L 282.5 36.764 
" style="fill:#dcd9d9;stroke:#ffffff;stroke-width:0.1;"/>
    <path clip-path="url(#p35a24a1491)" d="M 293.66 36.764 
L 304.82 36.764 
L 304.82 47.852 
L 293.66 47.852 
L 293.66 36.764 
" style="fill:#dcd9d9;stroke:#ffffff;stroke-width:0.1;"/>
    <path clip-path="url(#p35a24a1491)" d="M 304.82 36.764 
L 315.98 36.764 
L 315.98 47.852 
L 304.82 47.852 
L 304.82 36.764 
" style="fill:#158095;stroke:#ffffff;stroke-width:0.1;"/>
    <path clip-path="url(#p35a24a1491)" d="M 315.98 36.764 
L 327.14 36.764 
L 327.14 47.852 
L 315.98 47.852 
L 315.98 36.764 
" style="fill:#dcd9d9;stroke:#ffffff;stroke-width:0.1;"/>
    <path clip-path="url(#p35a24a1491)" d="M 327.14 36.764 
L 338.3 36.764 
L 338.3 47.852 
L 327.14 47.852 
L 327.14 36.764 
" style="fill:#dcd9d9;stroke:#ffffff;stroke-width:0.1;"/>
    <path clip-path="url(#p35a24a1491)" d="M 338.3 36.764 
L 349.46 36.764 
L 349.46 47.852 
L 338.3 47.852 
L 338.3 36.764 
" style="fill:#dcd9d9;stroke:#ffffff;stroke-width:0.1;"/>
    <path clip-path="url(#p35a24a1491)" d="M 349.46 36.764 
L 360.62 36.764 
L 360.62 47.852 
L 349.46 47.852 
L 349.46 36.764 
" style="fill:#dcd9d9;stroke:#ffffff;stroke-width:0.1;"/>
    <path clip-path="url(#p35a24a1491)" d="M 360.62 36.764 
L 371.78 36.764 
L 371.78 47.852 
L 360.62 47.852 
L 360.62 36.764 
" style="fill:#dcd9d9;stroke:#ffffff;stroke-width:0.1;"/>
    <path clip-path="url(#p35a24a1491)" d="M 371.78 36.764 
L 382.94 36.764 
L 382.94 47.852 
L 371.78 47.852 
L 371.78 36.764 
" style="fill:#dcd9d9;stroke:#ffffff;stroke-width:0.1;"/>
    <path clip-path="url(#p35a24a1491)" d="M 382.94 36.764 
L 394.1 36.764 
L 394.1 47.852 
L 382.94 47.852 
L 382.94 36.764 
" style="fill:#dcd9d9;stroke:#ffffff;stroke-width:0.1;"/>
    <path clip-path="url(#p35a24a1491)" d="M 394.1 36.764 
L 405.26 36.764 
L 405.26 47.852 
L 394.1 47.852 
L 394.1 36.764 
" style="fill:#dcd9d9;stroke:#ffffff;stroke-width:0.1;"/>
    <path clip-path="url(#p35a24a1491)" d="M 405.26 36.764 
L 416.42 36.764 
L 416.42 47.852 
L 405.26 47.852 
L 405.26 36.764 
" style="fill:#dcd9d9;stroke:#ffffff;stroke-width:0.1;"/>
    <path clip-path="url(#p35a24a1491)" d="M 416.42 36.764 
L 427.58 36.764 
L 427.58 47.852 
L 416.42 47.852 
L 416.42 36.764 
" style="fill:#158095;stroke:#ffffff;stroke-width:0.1;"/>
    <path clip-path="url(#p35a24a1491)" d="M 427.58 36.764 
L 438.74 36.764 
L 438.74 47.852 
L 427.58 47.852 
L 427.58 36.764 
" style="fill:#dcd9d9;stroke:#ffffff;stroke-width:0.1;"/>
    <path clip-path="url(#p35a24a1491)" d="M 438.74 36.764 
L 449.9 36.764 
L 449.9 47.852 
L 438.74 47.852 
L 438.74 36.764 
" style="fill:#dcd9d9;stroke:#ffffff;stroke-width:0.1;"/>
    <path clip-path="url(#p35a24a1491)" d="M 449.9 36.764 
L 461.06 36.764 
L 461.06 47.852 
L 449.9 47.852 
L 449.9 36.764 
" style="fill:#dcd9d9;stroke:#ffffff;stroke-width:0.1;"/>
    <path clip-path="url(#p35a24a1491)" d="M 461.06 36.764 
L 472.22 36.764 
L 472.22 47.852 
L 461.06 47.852 
L 461.06 36.764 
" style="fill:#dcd9d9;stroke:#ffffff;stroke-width:0.1;"/>
    <path clip-path="url(#p35a24a1491)" d="M 472.22 36.764 
L 483.38 36.764 
L 483.38 47.852 
L 472.22 47.852 
L 472.22 36.764 
" style="fill:#dcd9d9;stroke:#ffffff;stroke-width:0.1;"/>
    <path clip-path="url(#p35a24a1491)" d="M 483.38 36.764 
L 494.54 36.764 
L 494.54 47.852 
L 483.38 47.852 
L 483.38 36.764 
" style="fill:#dcd9d9;stroke:#ffffff;stroke-width:0.1;"/>
    <path clip-path="url(#p35a24a1491)" d="M 494.54 36.764 
L 505.7 36.764 
L 505.7 47.852 
L 494.54 47.852 
L 494.54 36.764 
" style="fill:#dcd9d9;stroke:#ffffff;stroke-width:0.1;"/>
    <path clip-path="url(#p35a24a1491)" d="M 505.7 36.764 
L 516.86 36.764 
L 516.86 47.852 
L 505.7 47.852 
L 505.7 36.764 
" style="fill:#dcd9d9;stroke:#ffffff;stroke-width:0.1;"/>
    <path clip-path="url(#p35a24a1491)" d="M 516.86 36.764 
L 528.02 36.764 
L 528.02 47.852 
L 516.86 47.852 
L 516.86 36.764 
" style="fill:#dcd9d9;stroke:#ffffff;stroke-width:0.1;"/>
    <path clip-path="url(#p35a24a1491)" d="M 528.02 36.764 
L 539.18 36.764 
L 539.18 47.852 
L 528.02 47.852 
L 528.02 36.764 
" style="fill:#dcd9d9;stroke:#ffffff;stroke-width:0.1;"/>
    <path clip-path="url(#p35a24a1491)" d="M 539.18 36.764 
L 550.34 36.764 
L 550.34 47.852 
L 539.18 47.852 
L 539.18 36.764 
" style="fill:#dcd9d9;stroke:#ffffff;stroke-width:0.1;"/>
    <path clip-path="url(#p35a24a1491)" d="M 550.34 36.764 
L 561.5 36.764 
L 561.5 47.852 
L 550.34 47.852 
L 550.34 36.764 
" style="fill:#dcd9d9;stroke:#ffffff;stroke-width:0.1;"/>
    <path clip-path="url(#p35a24a1491)" d="M 3.5 47.852 
L 14.66 47.852 
L 14.66 58.94 
L 3.5 58.94 
L 3.5 47.852 
" style="fill:#dcd9d9;stroke:#ffffff;stroke-width:0.1;"/>
    <path clip-path="url(#p35a24a1491)" d="M 14.66 47.852 
L 25.82 47.852 
L 25.82 58.94 
L 14.66 58.94 
L 14.66 47.852 
" style="fill:#dcd9d9;stroke:#ffffff;stroke-width:0.1;"/>
    <path clip-path="url(#p35a24a1491)" d="M 25.82 47.852 
L 36.98 47.852 
L 36.98 58.94 
L 25.82 58.94 
L 25.82 47.852 
" style="fill:#dcd9d9;stroke:#ffffff;stroke-width:0.1;"/>
    <path clip-path="url(#p35a24a1491)" d="M 36.98 47.852 
L 48.14 47.852 
L 48.14 58.94 
L 36.98 58.94 
L 36.98 47.852 
" style="fill:#dcd9d9;stroke:#ffffff;stroke-width:0.1;"/>
    <path clip-path="url(#p35a24a1491)" d="M 48.14 47.852 
L 59.3 47.852 
L 59.3 58.94 
L 48.14 58.94 
L 48.14 47.852 
" style="fill:#dcd9d9;stroke:#ffffff;stroke-width:0.1;"/>
    <path clip-path="url(#p35a24a1491)" d="M 59.3 47.852 
L 70.46 47.852 
L 70.46 58.94 
L 59.3 58.94 
L 59.3 47.852 
" style="fill:#dcd9d9;stroke:#ffffff;stroke-width:0.1;"/>
    <path clip-path="url(#p35a24a1491)" d="M 70.46 47.852 
L 81.62 47.852 
L 81.62 58.94 
L 70.46 58.94 
L 70.46 47.852 
" style="fill:#dcd9d9;stroke:#ffffff;stroke-width:0.1;"/>
    <path clip-path="url(#p35a24a1491)" d="M 81.62 47.852 
L 92.78 47.852 
L 92.78 58.94 
L 81.62 58.94 
L 81.62 47.852 
" style="fill:#47d1b8;stroke:#ffffff;stroke-width:0.1;"/>
    <path clip-path="url(#p35a24a1491)" d="M 92.78 47.852 
L 103.94 47.852 
L 103.94 58.94 
L 92.78 58.94 
L 92.78 47.852 
" style="fill:#47d1b8;stroke:#ffffff;stroke-width:0.1;"/>
    <path clip-path="url(#p35a24a1491)" d="M 103.94 47.852 
L 115.1 47.852 
L 115.1 58.94 
L 103.94 58.94 
L 103.94 47.852 
" style="fill:#47d1b8;stroke:#ffffff;stroke-width:0.1;"/>
    <path clip-path="url(#p35a24a1491)" d="M 115.1 47.852 
L 126.26 47.852 
L 126.26 58.94 
L 115.1 58.94 
L 115.1 47.852 
" style="fill:#dcd9d9;stroke:#ffffff;stroke-width:0.1;"/>
    <path clip-path="url(#p35a24a1491)" d="M 126.26 47.852 
L 137.42 47.852 
L 137.42 58.94 
L 126.26 58.94 
L 126.26 47.852 
" style="fill:#dcd9d9;stroke:#ffffff;stroke-width:0.1;"/>
    <path clip-path="url(#p35a24a1491)" d="M 137.42 47.852 
L 148.58 47.852 
L 148.58 58.94 
L 137.42 58.94 
L 137.42 47.852 
" style="fill:#dcd9d9;stroke:#ffffff;stroke-width:0.1;"/>
    <path clip-path="url(#p35a24a1491)" d="M 148.58 47.852 
L 159.74 47.852 
L 159.74 58.94 
L 148.58 58.94 
L 148.58 47.852 
" style="fill:#dcd9d9;stroke:#ffffff;stroke-width:0.1;"/>
    <path clip-path="url(#p35a24a1491)" d="M 159.74 47.852 
L 170.9 47.852 
L 170.9 58.94 
L 159.74 58.94 
L 159.74 47.852 
" style="fill:#dcd9d9;stroke:#ffffff;stroke-width:0.1;"/>
    <path clip-path="url(#p35a24a1491)" d="M 170.9 47.852 
L 182.06 47.852 
L 182.06 58.94 
L 170.9 58.94 
L 170.9 47.852 
" style="fill:#dcd9d9;stroke:#ffffff;stroke-width:0.1;"/>
    <path clip-path="url(#p35a24a1491)" d="M 182.06 47.852 
L 193.22 47.852 
L 193.22 58.94 
L 182.06 58.94 
L 182.06 47.852 
" style="fill:#dcd9d9;stroke:#ffffff;stroke-width:0.1;"/>
    <path clip-path="url(#p35a24a1491)" d="M 193.22 47.852 
L 204.38 47.852 
L 204.38 58.94 
L 193.22 58.94 
L 193.22 47.852 
" style="fill:#dcd9d9;stroke:#ffffff;stroke-width:0.1;"/>
    <path clip-path="url(#p35a24a1491)" d="M 204.38 47.852 
L 215.54 47.852 
L 215.54 58.94 
L 204.38 58.94 
L 204.38 47.852 
" style="fill:#dcd9d9;stroke:#ffffff;stroke-width:0.1;"/>
    <path clip-path="url(#p35a24a1491)" d="M 215.54 47.852 
L 226.7 47.852 
L 226.7 58.94 
L 215.54 58.94 
L 215.54 47.852 
" style="fill:#dcd9d9;stroke:#ffffff;stroke-width:0.1;"/>
    <path clip-path="url(#p35a24a1491)" d="M 226.7 47.852 
L 237.86 47.852 
L 237.86 58.94 
L 226.7 58.94 
L 226.7 47.852 
" style="fill:#dcd9d9;stroke:#ffffff;stroke-width:0.1;"/>
    <path clip-path="url(#p35a24a1491)" d="M 237.86 47.852 
L 249.02 47.852 
L 249.02 58.94 
L 237.86 58.94 
L 237.86 47.852 
" style="fill:#dcd9d9;stroke:#ffffff;stroke-width:0.1;"/>
    <path clip-path="url(#p35a24a1491)" d="M 249.02 47.852 
L 260.18 47.852 
L 260.18 58.94 
L 249.02 58.94 
L 249.02 47.852 
" style="fill:#dcd9d9;stroke:#ffffff;stroke-width:0.1;"/>
    <path clip-path="url(#p35a24a1491)" d="M 260.18 47.852 
L 271.34 47.852 
L 271.34 58.94 
L 260.18 58.94 
L 260.18 47.852 
" style="fill:#dcd9d9;stroke:#ffffff;stroke-width:0.1;"/>
    <path clip-path="url(#p35a24a1491)" d="M 271.34 47.852 
L 282.5 47.852 
L 282.5 58.94 
L 271.34 58.94 
L 271.34 47.852 
" style="fill:#dcd9d9;stroke:#ffffff;stroke-width:0.1;"/>
    <path clip-path="url(#p35a24a1491)" d="M 282.5 47.852 
L 293.66 47.852 
L 293.66 58.94 
L 282.5 58.94 
L 282.5 47.852 
" style="fill:#dcd9d9;stroke:#ffffff;stroke-width:0.1;"/>
    <path clip-path="url(#p35a24a1491)" d="M 293.66 47.852 
L 304.82 47.852 
L 304.82 58.94 
L 293.66 58.94 
L 293.66 47.852 
" style="fill:#dcd9d9;stroke:#ffffff;stroke-width:0.1;"/>
    <path clip-path="url(#p35a24a1491)" d="M 304.82 47.852 
L 315.98 47.852 
L 315.98 58.94 
L 304.82 58.94 
L 304.82 47.852 
" style="fill:#dcd9d9;stroke:#ffffff;stroke-width:0.1;"/>
    <path clip-path="url(#p35a24a1491)" d="M 315.98 47.852 
L 327.14 47.852 
L 327.14 58.94 
L 315.98 58.94 
L 315.98 47.852 
" style="fill:#dcd9d9;stroke:#ffffff;stroke-width:0.1;"/>
    <path clip-path="url(#p35a24a1491)" d="M 327.14 47.852 
L 338.3 47.852 
L 338.3 58.94 
L 327.14 58.94 
L 327.14 47.852 
" style="fill:#dcd9d9;stroke:#ffffff;stroke-width:0.1;"/>
    <path clip-path="url(#p35a24a1491)" d="M 338.3 47.852 
L 349.46 47.852 
L 349.46 58.94 
L 338.3 58.94 
L 338.3 47.852 
" style="fill:#dcd9d9;stroke:#ffffff;stroke-width:0.1;"/>
    <path clip-path="url(#p35a24a1491)" d="M 349.46 47.852 
L 360.62 47.852 
L 360.62 58.94 
L 349.46 58.94 
L 349.46 47.852 
" style="fill:#dcd9d9;stroke:#ffffff;stroke-width:0.1;"/>
    <path clip-path="url(#p35a24a1491)" d="M 360.62 47.852 
L 371.78 47.852 
L 371.78 58.94 
L 360.62 58.94 
L 360.62 47.852 
" style="fill:#dcd9d9;stroke:#ffffff;stroke-width:0.1;"/>
    <path clip-path="url(#p35a24a1491)" d="M 371.78 47.852 
L 382.94 47.852 
L 382.94 58.94 
L 371.78 58.94 
L 371.78 47.852 
" style="fill:#dcd9d9;stroke:#ffffff;stroke-width:0.1;"/>
    <path clip-path="url(#p35a24a1491)" d="M 382.94 47.852 
L 394.1 47.852 
L 394.1 58.94 
L 382.94 58.94 
L 382.94 47.852 
" style="fill:#dcd9d9;stroke:#ffffff;stroke-width:0.1;"/>
    <path clip-path="url(#p35a24a1491)" d="M 394.1 47.852 
L 405.26 47.852 
L 405.26 58.94 
L 394.1 58.94 
L 394.1 47.852 
" style="fill:#dcd9d9;stroke:#ffffff;stroke-width:0.1;"/>
    <path clip-path="url(#p35a24a1491)" d="M 405.26 47.852 
L 416.42 47.852 
L 416.42 58.94 
L 405.26 58.94 
L 405.26 47.852 
" style="fill:#dcd9d9;stroke:#ffffff;stroke-width:0.1;"/>
    <path clip-path="url(#p35a24a1491)" d="M 416.42 47.852 
L 427.58 47.852 
L 427.58 58.94 
L 416.42 58.94 
L 416.42 47.852 
" style="fill:#dcd9d9;stroke:#ffffff;stroke-width:0.1;"/>
    <path clip-path="url(#p35a24a1491)" d="M 427.58 47.852 
L 438.74 47.852 
L 438.74 58.94 
L 427.58 58.94 
L 427.58 47.852 
" style="fill:#dcd9d9;stroke:#ffffff;stroke-width:0.1;"/>
    <path clip-path="url(#p35a24a1491)" d="M 438.74 47.852 
L 449.9 47.852 
L 449.9 58.94 
L 438.74 58.94 
L 438.74 47.852 
" style="fill:#dcd9d9;stroke:#ffffff;stroke-width:0.1;"/>
    <path clip-path="url(#p35a24a1491)" d="M 449.9 47.852 
L 461.06 47.852 
L 461.06 58.94 
L 449.9 58.94 
L 449.9 47.852 
" style="fill:#dcd9d9;stroke:#ffffff;stroke-width:0.1;"/>
    <path clip-path="url(#p35a24a1491)" d="M 461.06 47.852 
L 472.22 47.852 
L 472.22 58.94 
L 461.06 58.94 
L 461.06 47.852 
" style="fill:#dcd9d9;stroke:#ffffff;stroke-width:0.1;"/>
    <path clip-path="url(#p35a24a1491)" d="M 472.22 47.852 
L 483.38 47.852 
L 483.38 58.94 
L 472.22 58.94 
L 472.22 47.852 
" style="fill:#dcd9d9;stroke:#ffffff;stroke-width:0.1;"/>
    <path clip-path="url(#p35a24a1491)" d="M 483.38 47.852 
L 494.54 47.852 
L 494.54 58.94 
L 483.38 58.94 
L 483.38 47.852 
" style="fill:#dcd9d9;stroke:#ffffff;stroke-width:0.1;"/>
    <path clip-path="url(#p35a24a1491)" d="M 494.54 47.852 
L 505.7 47.852 
L 505.7 58.94 
L 494.54 58.94 
L 494.54 47.852 
" style="fill:#dcd9d9;stroke:#ffffff;stroke-width:0.1;"/>
    <path clip-path="url(#p35a24a1491)" d="M 505.7 47.852 
L 516.86 47.852 
L 516.86 58.94 
L 505.7 58.94 
L 505.7 47.852 
" style="fill:#dcd9d9;stroke:#ffffff;stroke-width:0.1;"/>
    <path clip-path="url(#p35a24a1491)" d="M 516.86 47.852 
L 528.02 47.852 
L 528.02 58.94 
L 516.86 58.94 
L 516.86 47.852 
" style="fill:#dcd9d9;stroke:#ffffff;stroke-width:0.1;"/>
    <path clip-path="url(#p35a24a1491)" d="M 528.02 47.852 
L 539.18 47.852 
L 539.18 58.94 
L 528.02 58.94 
L 528.02 47.852 
" style="fill:#dcd9d9;stroke:#ffffff;stroke-width:0.1;"/>
    <path clip-path="url(#p35a24a1491)" d="M 539.18 47.852 
L 550.34 47.852 
L 550.34 58.94 
L 539.18 58.94 
L 539.18 47.852 
" style="fill:#dcd9d9;stroke:#ffffff;stroke-width:0.1;"/>
    <path clip-path="url(#p35a24a1491)" d="M 550.34 47.852 
L 561.5 47.852 
L 561.5 58.94 
L 550.34 58.94 
L 550.34 47.852 
" style="fill:#dcd9d9;stroke:#ffffff;stroke-width:0.1;"/>
    <path clip-path="url(#p35a24a1491)" d="M 3.5 58.94 
L 14.66 58.94 
L 14.66 70.028 
L 3.5 70.028 
L 3.5 58.94 
" style="fill:#dcd9d9;stroke:#ffffff;stroke-width:0.1;"/>
    <path clip-path="url(#p35a24a1491)" d="M 14.66 58.94 
L 25.82 58.94 
L 25.82 70.028 
L 14.66 70.028 
L 14.66 58.94 
" style="fill:#dcd9d9;stroke:#ffffff;stroke-width:0.1;"/>
    <path clip-path="url(#p35a24a1491)" d="M 25.82 58.94 
L 36.98 58.94 
L 36.98 70.028 
L 25.82 70.028 
L 25.82 58.94 
" style="fill:#dcd9d9;stroke:#ffffff;stroke-width:0.1;"/>
    <path clip-path="url(#p35a24a1491)" d="M 36.98 58.94 
L 48.14 58.94 
L 48.14 70.028 
L 36.98 70.028 
L 36.98 58.94 
" style="fill:#dcd9d9;stroke:#ffffff;stroke-width:0.1;"/>
    <path clip-path="url(#p35a24a1491)" d="M 48.14 58.94 
L 59.3 58.94 
L 59.3 70.028 
L 48.14 70.028 
L 48.14 58.94 
" style="fill:#dcd9d9;stroke:#ffffff;stroke-width:0.1;"/>
    <path clip-path="url(#p35a24a1491)" d="M 59.3 58.94 
L 70.46 58.94 
L 70.46 70.028 
L 59.3 70.028 
L 59.3 58.94 
" style="fill:#dcd9d9;stroke:#ffffff;stroke-width:0.1;"/>
    <path clip-path="url(#p35a24a1491)" d="M 70.46 58.94 
L 81.62 58.94 
L 81.62 70.028 
L 70.46 70.028 
L 70.46 58.94 
" style="fill:#dcd9d9;stroke:#ffffff;stroke-width:0.1;"/>
    <path clip-path="url(#p35a24a1491)" d="M 81.62 58.94 
L 92.78 58.94 
L 92.78 70.028 
L 81.62 70.028 
L 81.62 58.94 
" style="fill:#dcd9d9;stroke:#ffffff;stroke-width:0.1;"/>
    <path clip-path="url(#p35a24a1491)" d="M 92.78 58.94 
L 103.94 58.94 
L 103.94 70.028 
L 92.78 70.028 
L 92.78 58.94 
" style="fill:#dcd9d9;stroke:#ffffff;stroke-width:0.1;"/>
    <path clip-path="url(#p35a24a1491)" d="M 103.94 58.94 
L 115.1 58.94 
L 115.1 70.028 
L 103.94 70.028 
L 103.94 58.94 
" style="fill:#dcd9d9;stroke:#ffffff;stroke-width:0.1;"/>
    <path clip-path="url(#p35a24a1491)" d="M 115.1 58.94 
L 126.26 58.94 
L 126.26 70.028 
L 115.1 70.028 
L 115.1 58.94 
" style="fill:#dcd9d9;stroke:#ffffff;stroke-width:0.1;"/>
    <path clip-path="url(#p35a24a1491)" d="M 126.26 58.94 
L 137.42 58.94 
L 137.42 70.028 
L 126.26 70.028 
L 126.26 58.94 
" style="fill:#dcd9d9;stroke:#ffffff;stroke-width:0.1;"/>
    <path clip-path="url(#p35a24a1491)" d="M 137.42 58.94 
L 148.58 58.94 
L 148.58 70.028 
L 137.42 70.028 
L 137.42 58.94 
" style="fill:#dcd9d9;stroke:#ffffff;stroke-width:0.1;"/>
    <path clip-path="url(#p35a24a1491)" d="M 148.58 58.94 
L 159.74 58.94 
L 159.74 70.028 
L 148.58 70.028 
L 148.58 58.94 
" style="fill:#dcd9d9;stroke:#ffffff;stroke-width:0.1;"/>
    <path clip-path="url(#p35a24a1491)" d="M 159.74 58.94 
L 170.9 58.94 
L 170.9 70.028 
L 159.74 70.028 
L 159.74 58.94 
" style="fill:#dcd9d9;stroke:#ffffff;stroke-width:0.1;"/>
    <path clip-path="url(#p35a24a1491)" d="M 170.9 58.94 
L 182.06 58.94 
L 182.06 70.028 
L 170.9 70.028 
L 170.9 58.94 
" style="fill:#dcd9d9;stroke:#ffffff;stroke-width:0.1;"/>
    <path clip-path="url(#p35a24a1491)" d="M 182.06 58.94 
L 193.22 58.94 
L 193.22 70.028 
L 182.06 70.028 
L 182.06 58.94 
" style="fill:#dcd9d9;stroke:#ffffff;stroke-width:0.1;"/>
    <path clip-path="url(#p35a24a1491)" d="M 193.22 58.94 
L 204.38 58.94 
L 204.38 70.028 
L 193.22 70.028 
L 193.22 58.94 
" style="fill:#dcd9d9;stroke:#ffffff;stroke-width:0.1;"/>
    <path clip-path="url(#p35a24a1491)" d="M 204.38 58.94 
L 215.54 58.94 
L 215.54 70.028 
L 204.38 70.028 
L 204.38 58.94 
" style="fill:#dcd9d9;stroke:#ffffff;stroke-width:0.1;"/>
    <path clip-path="url(#p35a24a1491)" d="M 215.54 58.94 
L 226.7 58.94 
L 226.7 70.028 
L 215.54 70.028 
L 215.54 58.94 
" style="fill:#dcd9d9;stroke:#ffffff;stroke-width:0.1;"/>
    <path clip-path="url(#p35a24a1491)" d="M 226.7 58.94 
L 237.86 58.94 
L 237.86 70.028 
L 226.7 70.028 
L 226.7 58.94 
" style="fill:#dcd9d9;stroke:#ffffff;stroke-width:0.1;"/>
    <path clip-path="url(#p35a24a1491)" d="M 237.86 58.94 
L 249.02 58.94 
L 249.02 70.028 
L 237.86 70.028 
L 237.86 58.94 
" style="fill:#47d1b8;stroke:#ffffff;stroke-width:0.1;"/>
    <path clip-path="url(#p35a24a1491)" d="M 249.02 58.94 
L 260.18 58.94 
L 260.18 70.028 
L 249.02 70.028 
L 249.02 58.94 
" style="fill:#47d1b8;stroke:#ffffff;stroke-width:0.1;"/>
    <path clip-path="url(#p35a24a1491)" d="M 260.18 58.94 
L 271.34 58.94 
L 271.34 70.028 
L 260.18 70.028 
L 260.18 58.94 
" style="fill:#dcd9d9;stroke:#ffffff;stroke-width:0.1;"/>
    <path clip-path="url(#p35a24a1491)" d="M 271.34 58.94 
L 282.5 58.94 
L 282.5 70.028 
L 271.34 70.028 
L 271.34 58.94 
" style="fill:#dcd9d9;stroke:#ffffff;stroke-width:0.1;"/>
    <path clip-path="url(#p35a24a1491)" d="M 282.5 58.94 
L 293.66 58.94 
L 293.66 70.028 
L 282.5 70.028 
L 282.5 58.94 
" style="fill:#dcd9d9;stroke:#ffffff;stroke-width:0.1;"/>
    <path clip-path="url(#p35a24a1491)" d="M 293.66 58.94 
L 304.82 58.94 
L 304.82 70.028 
L 293.66 70.028 
L 293.66 58.94 
" style="fill:#dcd9d9;stroke:#ffffff;stroke-width:0.1;"/>
    <path clip-path="url(#p35a24a1491)" d="M 304.82 58.94 
L 315.98 58.94 
L 315.98 70.028 
L 304.82 70.028 
L 304.82 58.94 
" style="fill:#dcd9d9;stroke:#ffffff;stroke-width:0.1;"/>
    <path clip-path="url(#p35a24a1491)" d="M 315.98 58.94 
L 327.14 58.94 
L 327.14 70.028 
L 315.98 70.028 
L 315.98 58.94 
" style="fill:#dcd9d9;stroke:#ffffff;stroke-width:0.1;"/>
    <path clip-path="url(#p35a24a1491)" d="M 327.14 58.94 
L 338.3 58.94 
L 338.3 70.028 
L 327.14 70.028 
L 327.14 58.94 
" style="fill:#dcd9d9;stroke:#ffffff;stroke-width:0.1;"/>
    <path clip-path="url(#p35a24a1491)" d="M 338.3 58.94 
L 349.46 58.94 
L 349.46 70.028 
L 338.3 70.028 
L 338.3 58.94 
" style="fill:#dcd9d9;stroke:#ffffff;stroke-width:0.1;"/>
    <path clip-path="url(#p35a24a1491)" d="M 349.46 58.94 
L 360.62 58.94 
L 360.62 70.028 
L 349.46 70.028 
L 349.46 58.94 
" style="fill:#dcd9d9;stroke:#ffffff;stroke-width:0.1;"/>
    <path clip-path="url(#p35a24a1491)" d="M 360.62 58.94 
L 371.78 58.94 
L 371.78 70.028 
L 360.62 70.028 
L 360.62 58.94 
" style="fill:#dcd9d9;stroke:#ffffff;stroke-width:0.1;"/>
    <path clip-path="url(#p35a24a1491)" d="M 371.78 58.94 
L 382.94 58.94 
L 382.94 70.028 
L 371.78 70.028 
L 371.78 58.94 
" style="fill:#dcd9d9;stroke:#ffffff;stroke-width:0.1;"/>
    <path clip-path="url(#p35a24a1491)" d="M 382.94 58.94 
L 394.1 58.94 
L 394.1 70.028 
L 382.94 70.028 
L 382.94 58.94 
" style="fill:#dcd9d9;stroke:#ffffff;stroke-width:0.1;"/>
    <path clip-path="url(#p35a24a1491)" d="M 394.1 58.94 
L 405.26 58.94 
L 405.26 70.028 
L 394.1 70.028 
L 394.1 58.94 
" style="fill:#dcd9d9;stroke:#ffffff;stroke-width:0.1;"/>
    <path clip-path="url(#p35a24a1491)" d="M 405.26 58.94 
L 416.42 58.94 
L 416.42 70.028 
L 405.26 70.028 
L 405.26 58.94 
" style="fill:#dcd9d9;stroke:#ffffff;stroke-width:0.1;"/>
    <path clip-path="url(#p35a24a1491)" d="M 416.42 58.94 
L 427.58 58.94 
L 427.58 70.028 
L 416.42 70.028 
L 416.42 58.94 
" style="fill:#dcd9d9;stroke:#ffffff;stroke-width:0.1;"/>
    <path clip-path="url(#p35a24a1491)" d="M 427.58 58.94 
L 438.74 58.94 
L 438.74 70.028 
L 427.58 70.028 
L 427.58 58.94 
" style="fill:#dcd9d9;stroke:#ffffff;stroke-width:0.1;"/>
    <path clip-path="url(#p35a24a1491)" d="M 438.74 58.94 
L 449.9 58.94 
L 449.9 70.028 
L 438.74 70.028 
L 438.74 58.94 
" style="fill:#dcd9d9;stroke:#ffffff;stroke-width:0.1;"/>
    <path clip-path="url(#p35a24a1491)" d="M 449.9 58.94 
L 461.06 58.94 
L 461.06 70.028 
L 449.9 70.028 
L 449.9 58.94 
" style="fill:#dcd9d9;stroke:#ffffff;stroke-width:0.1;"/>
    <path clip-path="url(#p35a24a1491)" d="M 461.06 58.94 
L 472.22 58.94 
L 472.22 70.028 
L 461.06 70.028 
L 461.06 58.94 
" style="fill:#dcd9d9;stroke:#ffffff;stroke-width:0.1;"/>
    <path clip-path="url(#p35a24a1491)" d="M 472.22 58.94 
L 483.38 58.94 
L 483.38 70.028 
L 472.22 70.028 
L 472.22 58.94 
" style="fill:#dcd9d9;stroke:#ffffff;stroke-width:0.1;"/>
    <path clip-path="url(#p35a24a1491)" d="M 483.38 58.94 
L 494.54 58.94 
L 494.54 70.028 
L 483.38 70.028 
L 483.38 58.94 
" style="fill:#dcd9d9;stroke:#ffffff;stroke-width:0.1;"/>
    <path clip-path="url(#p35a24a1491)" d="M 494.54 58.94 
L 505.7 58.94 
L 505.7 70.028 
L 494.54 70.028 
L 494.54 58.94 
" style="fill:#dcd9d9;stroke:#ffffff;stroke-width:0.1;"/>
    <path clip-path="url(#p35a24a1491)" d="M 505.7 58.94 
L 516.86 58.94 
L 516.86 70.028 
L 505.7 70.028 
L 505.7 58.94 
" style="fill:#dcd9d9;stroke:#ffffff;stroke-width:0.1;"/>
    <path clip-path="url(#p35a24a1491)" d="M 516.86 58.94 
L 528.02 58.94 
L 528.02 70.028 
L 516.86 70.028 
L 516.86 58.94 
" style="fill:#dcd9d9;stroke:#ffffff;stroke-width:0.1;"/>
    <path clip-path="url(#p35a24a1491)" d="M 528.02 58.94 
L 539.18 58.94 
L 539.18 70.028 
L 528.02 70.028 
L 528.02 58.94 
" style="fill:#dcd9d9;stroke:#ffffff;stroke-width:0.1;"/>
    <path clip-path="url(#p35a24a1491)" d="M 539.18 58.94 
L 550.34 58.94 
L 550.34 70.028 
L 539.18 70.028 
L 539.18 58.94 
" style="fill:#dcd9d9;stroke:#ffffff;stroke-width:0.1;"/>
    <path clip-path="url(#p35a24a1491)" d="M 550.34 58.94 
L 561.5 58.94 
L 561.5 70.028 
L 550.34 70.028 
L 550.34 58.94 
" style="fill:#dcd9d9;stroke:#ffffff;stroke-width:0.1;"/>
    <path clip-path="url(#p35a24a1491)" d="M 3.5 70.028 
L 14.66 70.028 
L 14.66 81.116 
L 3.5 81.116 
L 3.5 70.028 
" style="fill:#dcd9d9;stroke:#ffffff;stroke-width:0.1;"/>
    <path clip-path="url(#p35a24a1491)" d="M 14.66 70.028 
L 25.82 70.028 
L 25.82 81.116 
L 14.66 81.116 
L 14.66 70.028 
" style="fill:#dcd9d9;stroke:#ffffff;stroke-width:0.1;"/>
    <path clip-path="url(#p35a24a1491)" d="M 25.82 70.028 
L 36.98 70.028 
L 36.98 81.116 
L 25.82 81.116 
L 25.82 70.028 
" style="fill:#dcd9d9;stroke:#ffffff;stroke-width:0.1;"/>
    <path clip-path="url(#p35a24a1491)" d="M 36.98 70.028 
L 48.14 70.028 
L 48.14 81.116 
L 36.98 81.116 
L 36.98 70.028 
" style="fill:#dcd9d9;stroke:#ffffff;stroke-width:0.1;"/>
    <path clip-path="url(#p35a24a1491)" d="M 48.14 70.028 
L 59.3 70.028 
L 59.3 81.116 
L 48.14 81.116 
L 48.14 70.028 
" style="fill:#dcd9d9;stroke:#ffffff;stroke-width:0.1;"/>
    <path clip-path="url(#p35a24a1491)" d="M 59.3 70.028 
L 70.46 70.028 
L 70.46 81.116 
L 59.3 81.116 
L 59.3 70.028 
" style="fill:#dcd9d9;stroke:#ffffff;stroke-width:0.1;"/>
    <path clip-path="url(#p35a24a1491)" d="M 70.46 70.028 
L 81.62 70.028 
L 81.62 81.116 
L 70.46 81.116 
L 70.46 70.028 
" style="fill:#dcd9d9;stroke:#ffffff;stroke-width:0.1;"/>
    <path clip-path="url(#p35a24a1491)" d="M 81.62 70.028 
L 92.78 70.028 
L 92.78 81.116 
L 81.62 81.116 
L 81.62 70.028 
" style="fill:#dcd9d9;stroke:#ffffff;stroke-width:0.1;"/>
    <path clip-path="url(#p35a24a1491)" d="M 92.78 70.028 
L 103.94 70.028 
L 103.94 81.116 
L 92.78 81.116 
L 92.78 70.028 
" style="fill:#dcd9d9;stroke:#ffffff;stroke-width:0.1;"/>
    <path clip-path="url(#p35a24a1491)" d="M 103.94 70.028 
L 115.1 70.028 
L 115.1 81.116 
L 103.94 81.116 
L 103.94 70.028 
" style="fill:#dcd9d9;stroke:#ffffff;stroke-width:0.1;"/>
    <path clip-path="url(#p35a24a1491)" d="M 115.1 70.028 
L 126.26 70.028 
L 126.26 81.116 
L 115.1 81.116 
L 115.1 70.028 
" style="fill:#dcd9d9;stroke:#ffffff;stroke-width:0.1;"/>
    <path clip-path="url(#p35a24a1491)" d="M 126.26 70.028 
L 137.42 70.028 
L 137.42 81.116 
L 126.26 81.116 
L 126.26 70.028 
" style="fill:#dcd9d9;stroke:#ffffff;stroke-width:0.1;"/>
    <path clip-path="url(#p35a24a1491)" d="M 137.42 70.028 
L 148.58 70.028 
L 148.58 81.116 
L 137.42 81.116 
L 137.42 70.028 
" style="fill:#dcd9d9;stroke:#ffffff;stroke-width:0.1;"/>
    <path clip-path="url(#p35a24a1491)" d="M 148.58 70.028 
L 159.74 70.028 
L 159.74 81.116 
L 148.58 81.116 
L 148.58 70.028 
" style="fill:#158095;stroke:#ffffff;stroke-width:0.1;"/>
    <path clip-path="url(#p35a24a1491)" d="M 159.74 70.028 
L 170.9 70.028 
L 170.9 81.116 
L 159.74 81.116 
L 159.74 70.028 
" style="fill:#dcd9d9;stroke:#ffffff;stroke-width:0.1;"/>
    <path clip-path="url(#p35a24a1491)" d="M 170.9 70.028 
L 182.06 70.028 
L 182.06 81.116 
L 170.9 81.116 
L 170.9 70.028 
" style="fill:#ffffff;stroke:#ffffff;stroke-width:0.1;"/>
    <path clip-path="url(#p35a24a1491)" d="M 182.06 70.028 
L 193.22 70.028 
L 193.22 81.116 
L 182.06 81.116 
L 182.06 70.028 
" style="fill:#ffffff;stroke:#ffffff;stroke-width:0.1;"/>
    <path clip-path="url(#p35a24a1491)" d="M 193.22 70.028 
L 204.38 70.028 
L 204.38 81.116 
L 193.22 81.116 
L 193.22 70.028 
" style="fill:#ffffff;stroke:#ffffff;stroke-width:0.1;"/>
    <path clip-path="url(#p35a24a1491)" d="M 204.38 70.028 
L 215.54 70.028 
L 215.54 81.116 
L 204.38 81.116 
L 204.38 70.028 
" style="fill:#ffffff;stroke:#ffffff;stroke-width:0.1;"/>
    <path clip-path="url(#p35a24a1491)" d="M 215.54 70.028 
L 226.7 70.028 
L 226.7 81.116 
L 215.54 81.116 
L 215.54 70.028 
" style="fill:#ffffff;stroke:#ffffff;stroke-width:0.1;"/>
    <path clip-path="url(#p35a24a1491)" d="M 226.7 70.028 
L 237.86 70.028 
L 237.86 81.116 
L 226.7 81.116 
L 226.7 70.028 
" style="fill:#ffffff;stroke:#ffffff;stroke-width:0.1;"/>
    <path clip-path="url(#p35a24a1491)" d="M 237.86 70.028 
L 249.02 70.028 
L 249.02 81.116 
L 237.86 81.116 
L 237.86 70.028 
" style="fill:#ffffff;stroke:#ffffff;stroke-width:0.1;"/>
    <path clip-path="url(#p35a24a1491)" d="M 249.02 70.028 
L 260.18 70.028 
L 260.18 81.116 
L 249.02 81.116 
L 249.02 70.028 
" style="fill:#ffffff;stroke:#ffffff;stroke-width:0.1;"/>
    <path clip-path="url(#p35a24a1491)" d="M 260.18 70.028 
L 271.34 70.028 
L 271.34 81.116 
L 260.18 81.116 
L 260.18 70.028 
" style="fill:#ffffff;stroke:#ffffff;stroke-width:0.1;"/>
    <path clip-path="url(#p35a24a1491)" d="M 271.34 70.028 
L 282.5 70.028 
L 282.5 81.116 
L 271.34 81.116 
L 271.34 70.028 
" style="fill:#ffffff;stroke:#ffffff;stroke-width:0.1;"/>
    <path clip-path="url(#p35a24a1491)" d="M 282.5 70.028 
L 293.66 70.028 
L 293.66 81.116 
L 282.5 81.116 
L 282.5 70.028 
" style="fill:#ffffff;stroke:#ffffff;stroke-width:0.1;"/>
    <path clip-path="url(#p35a24a1491)" d="M 293.66 70.028 
L 304.82 70.028 
L 304.82 81.116 
L 293.66 81.116 
L 293.66 70.028 
" style="fill:#ffffff;stroke:#ffffff;stroke-width:0.1;"/>
    <path clip-path="url(#p35a24a1491)" d="M 304.82 70.028 
L 315.98 70.028 
L 315.98 81.116 
L 304.82 81.116 
L 304.82 70.028 
" style="fill:#ffffff;stroke:#ffffff;stroke-width:0.1;"/>
    <path clip-path="url(#p35a24a1491)" d="M 315.98 70.028 
L 327.14 70.028 
L 327.14 81.116 
L 315.98 81.116 
L 315.98 70.028 
" style="fill:#ffffff;stroke:#ffffff;stroke-width:0.1;"/>
    <path clip-path="url(#p35a24a1491)" d="M 327.14 70.028 
L 338.3 70.028 
L 338.3 81.116 
L 327.14 81.116 
L 327.14 70.028 
" style="fill:#ffffff;stroke:#ffffff;stroke-width:0.1;"/>
    <path clip-path="url(#p35a24a1491)" d="M 338.3 70.028 
L 349.46 70.028 
L 349.46 81.116 
L 338.3 81.116 
L 338.3 70.028 
" style="fill:#ffffff;stroke:#ffffff;stroke-width:0.1;"/>
    <path clip-path="url(#p35a24a1491)" d="M 349.46 70.028 
L 360.62 70.028 
L 360.62 81.116 
L 349.46 81.116 
L 349.46 70.028 
" style="fill:#ffffff;stroke:#ffffff;stroke-width:0.1;"/>
    <path clip-path="url(#p35a24a1491)" d="M 360.62 70.028 
L 371.78 70.028 
L 371.78 81.116 
L 360.62 81.116 
L 360.62 70.028 
" style="fill:#ffffff;stroke:#ffffff;stroke-width:0.1;"/>
    <path clip-path="url(#p35a24a1491)" d="M 371.78 70.028 
L 382.94 70.028 
L 382.94 81.116 
L 371.78 81.116 
L 371.78 70.028 
" style="fill:#ffffff;stroke:#ffffff;stroke-width:0.1;"/>
    <path clip-path="url(#p35a24a1491)" d="M 382.94 70.028 
L 394.1 70.028 
L 394.1 81.116 
L 382.94 81.116 
L 382.94 70.028 
" style="fill:#ffffff;stroke:#ffffff;stroke-width:0.1;"/>
    <path clip-path="url(#p35a24a1491)" d="M 394.1 70.028 
L 405.26 70.028 
L 405.26 81.116 
L 394.1 81.116 
L 394.1 70.028 
" style="fill:#ffffff;stroke:#ffffff;stroke-width:0.1;"/>
    <path clip-path="url(#p35a24a1491)" d="M 405.26 70.028 
L 416.42 70.028 
L 416.42 81.116 
L 405.26 81.116 
L 405.26 70.028 
" style="fill:#ffffff;stroke:#ffffff;stroke-width:0.1;"/>
    <path clip-path="url(#p35a24a1491)" d="M 416.42 70.028 
L 427.58 70.028 
L 427.58 81.116 
L 416.42 81.116 
L 416.42 70.028 
" style="fill:#ffffff;stroke:#ffffff;stroke-width:0.1;"/>
    <path clip-path="url(#p35a24a1491)" d="M 427.58 70.028 
L 438.74 70.028 
L 438.74 81.116 
L 427.58 81.116 
L 427.58 70.028 
" style="fill:#ffffff;stroke:#ffffff;stroke-width:0.1;"/>
    <path clip-path="url(#p35a24a1491)" d="M 438.74 70.028 
L 449.9 70.028 
L 449.9 81.116 
L 438.74 81.116 
L 438.74 70.028 
" style="fill:#ffffff;stroke:#ffffff;stroke-width:0.1;"/>
    <path clip-path="url(#p35a24a1491)" d="M 449.9 70.028 
L 461.06 70.028 
L 461.06 81.116 
L 449.9 81.116 
L 449.9 70.028 
" style="fill:#ffffff;stroke:#ffffff;stroke-width:0.1;"/>
    <path clip-path="url(#p35a24a1491)" d="M 461.06 70.028 
L 472.22 70.028 
L 472.22 81.116 
L 461.06 81.116 
L 461.06 70.028 
" style="fill:#ffffff;stroke:#ffffff;stroke-width:0.1;"/>
    <path clip-path="url(#p35a24a1491)" d="M 472.22 70.028 
L 483.38 70.028 
L 483.38 81.116 
L 472.22 81.116 
L 472.22 70.028 
" style="fill:#ffffff;stroke:#ffffff;stroke-width:0.1;"/>
    <path clip-path="url(#p35a24a1491)" d="M 483.38 70.028 
L 494.54 70.028 
L 494.54 81.116 
L 483.38 81.116 
L 483.38 70.028 
" style="fill:#ffffff;stroke:#ffffff;stroke-width:0.1;"/>
    <path clip-path="url(#p35a24a1491)" d="M 494.54 70.028 
L 505.7 70.028 
L 505.7 81.116 
L 494.54 81.116 
L 494.54 70.028 
" style="fill:#ffffff;stroke:#ffffff;stroke-width:0.1;"/>
    <path clip-path="url(#p35a24a1491)" d="M 505.7 70.028 
L 516.86 70.028 
L 516.86 81.116 
L 505.7 81.116 
L 505.7 70.028 
" style="fill:#ffffff;stroke:#ffffff;stroke-width:0.1;"/>
    <path clip-path="url(#p35a24a1491)" d="M 516.86 70.028 
L 528.02 70.028 
L 528.02 81.116 
L 516.86 81.116 
L 516.86 70.028 
" style="fill:#ffffff;stroke:#ffffff;stroke-width:0.1;"/>
    <path clip-path="url(#p35a24a1491)" d="M 528.02 70.028 
L 539.18 70.028 
L 539.18 81.116 
L 528.02 81.116 
L 528.02 70.028 
" style="fill:#ffffff;stroke:#ffffff;stroke-width:0.1;"/>
    <path clip-path="url(#p35a24a1491)" d="M 539.18 70.028 
L 550.34 70.028 
L 550.34 81.116 
L 539.18 81.116 
L 539.18 70.028 
" style="fill:#ffffff;stroke:#ffffff;stroke-width:0.1;"/>
    <path clip-path="url(#p35a24a1491)" d="M 550.34 70.028 
L 561.5 70.028 
L 561.5 81.116 
L 550.34 81.116 
L 550.34 70.028 
" style="fill:#ffffff;stroke:#ffffff;stroke-width:0.1;"/>
   </g>
   <g id="matplotlib.axis_1"/>
   <g id="matplotlib.axis_2"/>
  </g>
 </g>
 <defs>
  <clipPath id="p35a24a1491">
   <rect height="77.616" width="558" x="3.5" y="3.5"/>
  </clipPath>
 </defs>
</svg>
